<?xml version="1.0" encoding="UTF-8" ?>
<!DOCTYPE svg PUBLIC "-//W3C//DTD SVG 1.1//EN" "http://www.w3.org/Graphics/SVG/1.1/DTD/svg11.dtd">
<svg width="1500pt" height="1000pt" viewBox="0 0 1500 1000" version="1.1" xmlns="http://www.w3.org/2000/svg">
<g id="#ffffffff">
</g>
<g id="#0b7febff">
<path fill="#0b7feb" opacity="1.00" d=" M 231.77 330.53 C 284.17 330.46 336.57 330.53 388.97 330.49 C 408.50 330.28 428.50 336.66 443.12 349.88 C 455.05 360.58 462.55 375.50 466.05 390.99 C 469.99 408.99 470.96 428.10 465.54 445.90 C 458.72 469.01 441.51 488.33 420.27 499.35 C 437.73 507.98 452.73 521.85 462.01 539.04 C 470.77 555.09 473.83 573.87 472.04 591.97 C 470.79 607.72 465.90 623.49 456.23 636.15 C 447.47 647.86 435.01 656.38 421.53 661.82 C 380.90 591.32 340.70 520.57 300.17 450.00 C 277.39 410.16 254.44 370.43 231.77 330.53 Z" />
<path fill="#0b7feb" opacity="1.00" d=" M 231.99 416.28 C 244.25 437.49 256.44 458.73 268.67 479.95 C 256.44 479.92 244.22 479.89 231.99 479.86 C 231.97 458.67 231.97 437.48 231.99 416.28 Z" />
<path fill="#0b7feb" opacity="1.00" d=" M 514.29 493.00 C 558.36 493.00 602.43 493.00 646.50 493.00 C 646.50 503.83 646.50 514.66 646.50 525.49 C 615.83 525.52 585.17 525.49 554.51 525.50 C 554.50 538.17 554.50 550.83 554.51 563.49 C 581.58 563.51 608.66 563.50 635.74 563.50 C 635.76 573.99 635.74 584.49 635.75 594.99 C 608.67 595.01 581.59 594.99 554.50 595.00 C 554.50 608.50 554.50 622.00 554.50 635.49 C 586.25 635.51 618.00 635.50 649.74 635.50 C 649.76 646.33 649.74 657.16 649.75 667.99 C 604.52 668.01 559.30 668.00 514.07 668.00 C 514.08 612.00 514.07 556.00 514.08 500.00 C 514.09 497.66 514.20 495.33 514.29 493.00 Z" />
<path fill="#0b7feb" opacity="1.00" d=" M 682.00 493.00 C 693.20 493.03 704.41 492.94 715.61 493.05 C 740.05 523.04 764.63 552.92 789.12 582.87 C 793.87 587.93 798.19 593.37 802.51 598.80 C 802.48 563.54 802.50 528.27 802.50 493.00 C 815.83 493.00 829.16 493.00 842.50 493.00 C 842.50 551.33 842.50 609.67 842.50 668.00 C 831.19 667.96 819.89 668.08 808.59 667.94 C 779.95 632.52 750.70 597.57 722.00 562.19 C 722.00 597.46 722.00 632.73 722.00 668.00 C 708.66 668.00 695.33 668.00 682.00 668.00 C 682.00 609.67 682.00 551.33 682.00 493.00 Z" />
<path fill="#0b7feb" opacity="1.00" d=" M 884.00 493.00 C 897.50 493.00 911.00 493.00 924.50 493.00 C 924.50 551.33 924.50 609.66 924.50 668.00 C 911.00 668.00 897.50 668.00 884.00 668.00 C 884.00 609.67 884.00 551.33 884.00 493.00 Z" />
<path fill="#0b7feb" opacity="1.00" d=" M 1020.77 493.01 C 1034.10 493.00 1047.44 492.99 1060.78 493.01 C 1078.10 531.77 1095.44 570.53 1112.76 609.29 C 1121.99 628.66 1130.61 648.33 1139.21 667.98 C 1124.86 668.03 1110.52 667.97 1096.18 668.02 C 1090.98 655.50 1085.75 643.01 1080.68 630.44 C 1053.79 630.56 1026.90 630.50 1000.02 630.47 C 994.38 642.81 989.59 655.52 984.27 668.00 C 970.29 668.01 956.30 667.99 942.32 668.01 C 959.39 630.15 976.12 592.13 993.12 554.24 C 1002.35 533.83 1011.00 513.15 1020.77 493.01 M 1040.54 533.06 C 1036.30 544.42 1031.29 555.48 1026.79 566.74 C 1021.98 577.50 1017.21 588.30 1013.24 599.40 C 1031.43 599.55 1049.64 599.60 1067.83 599.37 C 1058.46 577.38 1049.50 555.22 1040.54 533.06 Z" />
<path fill="#0b7feb" opacity="1.00" d=" M 1157.50 493.00 C 1168.67 492.99 1179.83 493.00 1191.00 493.00 C 1204.24 509.12 1217.44 525.28 1230.67 541.42 C 1242.88 555.55 1254.60 570.12 1266.45 584.57 C 1269.93 589.71 1274.10 594.33 1277.97 599.17 C 1278.04 563.78 1277.97 528.39 1278.00 493.00 C 1291.33 493.00 1304.66 493.00 1318.00 493.00 C 1318.00 551.33 1318.00 609.67 1318.00 668.00 C 1306.91 668.00 1295.83 667.99 1284.75 668.00 C 1278.23 660.28 1272.13 652.20 1265.23 644.80 C 1242.68 617.24 1219.97 589.82 1197.49 562.22 C 1197.51 597.48 1197.50 632.74 1197.50 668.00 C 1184.16 668.00 1170.83 668.00 1157.50 668.00 C 1157.50 609.67 1157.50 551.33 1157.50 493.00 Z" />
<path fill="#0b7feb" opacity="1.00" d=" M 232.00 521.92 C 252.29 521.93 272.57 521.94 292.86 521.97 C 321.20 571.11 349.42 620.32 377.75 669.47 C 329.16 669.53 280.57 669.49 231.99 669.49 C 231.98 620.30 231.95 571.11 232.00 521.92 Z" />
</g>
</svg>
